<?xml version="1.0" encoding="utf-8" standalone="yes"?>
<!DOCTYPE svg PUBLIC "-//W3C//DTD SVG 1.1//EN" "http://www.w3.org/Graphics/SVG/1.1/DTD/svg11.dtd">
<svg width="604" height="532" viewBox="0 0 604 532" style="fill:none;stroke:none;fill-rule:evenodd;clip-rule:evenodd;stroke-linecap:round;stroke-linejoin:round;stroke-miterlimit:1.5;" version="1.1" xmlns="http://www.w3.org/2000/svg" xmlns:xlink="http://www.w3.org/1999/xlink"><style class="text-font-style fontImports" data-font-family="Shantell Sans">@import url('https://fonts.googleapis.com/css2?family=Shantell+Sans:wght@300..800&amp;display=block');</style><rect id="" x="0" y="0" width="604" height="532" style="fill: #ffffff;"></rect><g id="items" style="isolation: isolate"><g id="blend" style="mix-blend-mode: normal"><g id="g-root-tf_1lu9k1j17c1cea-fill" data-item-order="-316800" transform="translate(-8, -8)"><g id="tf_1lu9k1j17c1cea-fill" stroke="none" fill="#ffffff"><g><path d="M 10 10L 610 10L 610 538L 10 538Z"></path></g></g></g><g id="g-root-4.cu_sy_1lz9cqf17bsuto-fill" data-item-order="-105977" transform="translate(123.95700073242188, 280.75)"></g><g id="g-root-3.Exclude_sy_1hjfulz17bsvlx-fill" data-item-order="-105974" transform="translate(245.055908203125, 318)"><g id="3.Exclude_sy_1hjfulz17bsvlx-fill" stroke="none" fill="#ebebeb"><g><path d="M 68.544107 9.4L 68.344107 9.3L 53.144107 23.3L 57.644107 26.2ZM 53.144107 23.3L 74.244107 62.5L 88.844107 47.4L 68.344107 9.3ZM 88.844107 47.4L 43.544107 25.2L 32.244107 42L 74.244107 62.5ZM 32.244107 42L 79.044107 83.8L 89.244107 66.1L 43.544107 25.2ZM 89.244107 66.1L 37.344107 49L 28.344107 67.1L 79.044107 83.8ZM 28.344107 67.1L 93.844107 112.8L 102.844107 94.7L 37.344107 49ZM 102.844107 94.7L 27.944107 70.7L 18.644107 88.7L 93.844107 112.8ZM 18.644107 88.7L 79.444107 134.9L 89.744107 117.6L 27.944107 70.7ZM 89.744107 117.6L 29.744107 90.7L 15.644107 106.2L 79.444107 134.9ZM 15.644107 106.2L 32.344107 135.6L 46.944107 120.8L 29.744107 90.7ZM 46.944107 120.8L 21.044107 106.3L 11.244107 123.7L 32.344107 135.6Z" fill-rule="nonzero"></path></g></g></g><g id="g-root-2.right-bucket_sy_1hjfulz17bsvly-fill" data-item-order="-105970" transform="translate(340, 244)"><g id="2.right-bucket_sy_1hjfulz17bsvly-fill" stroke="none" fill="#c8ffe5"><g><path d="M 6.8 19.4L 6.3 18.6L 32.3 23.4L 24 9.2ZM 32.3 23.4L 44.6 13.5L 23.4 4.9L 6.3 18.6ZM 23.4 4.9L 25.3 20.5L 46.8 32.2L 44.6 13.5ZM 46.8 32.2L 69.1 21.2L 49.9 8.4L 25.3 20.5ZM 49.9 8.4L 48.5 31.1L 68 39.1L 69.1 21.2ZM 68 39.1L 87.1 17.2L 67 9.8L 48.5 31.1ZM 67 9.8L 67.3 40.9L 87.3 48L 87.1 17.2ZM 87.3 48L 115.7 14L 96.1 6.2L 67.3 40.9ZM 96.1 6.2L 94.1 39.1L 113.8 45.1L 115.7 14ZM 113.8 45.1L 134.4 10.4L 114.8 4.3L 94.1 39.1ZM 114.8 4.3L 112.3 39.5L 131.7 47.5L 134.4 10.4ZM 131.7 47.5L 160 14.4L 139.7 7.4L 112.3 39.5ZM 139.7 7.4L 140.9 39.8L 161.1 43L 160 14.4ZM 161.1 43L 172.7 11.6L 152.1 9.5L 140.9 39.8ZM 152.1 9.5L 156.5 38.2L 177.3 41.7L 172.7 11.6ZM 177.3 41.7L 195.1 7.9L 174.6 3.9L 156.5 38.2ZM 174.6 3.9L 177.8 36.2L 198.5 43L 195.1 7.9ZM 198.5 43L 224.7 13.3L 205.4 5L 177.8 36.2ZM 205.4 5L 204 20.4L 223 31.9L 224.7 13.3ZM 223 31.9L 244.1 18.3L 228.1 4.8L 204 20.4ZM 228.1 4.8L 223 16.7L 241.3 24.6L 244.1 18.3Z" fill-rule="nonzero"></path></g></g></g><g id="g-root-1.left-bucket_sy_1hjfulz17bsvlz-fill" data-item-order="-105966" transform="translate(16, 292)"><g id="1.left-bucket_sy_1hjfulz17bsvlz-fill" stroke="none" fill="#ffd9d8"><g><path d="M 7.2 10.6L 6.8 18.6L 26.2 30.1L 27.1 11.7ZM 26.2 30.1L 48.4 16.5L 28.1 5.5L 6.8 18.6ZM 28.1 5.5L 28.4 19.8L 48.8 31.4L 48.4 16.5ZM 48.8 31.4L 68.4 20.6L 47.2 9.4L 28.4 19.8ZM 47.2 9.4L 49.1 28.9L 69.9 36.1L 68.4 20.6ZM 69.9 36.1L 90.6 14.5L 70.9 6L 49.1 28.9ZM 70.9 6L 69.3 41.9L 89 48.4L 90.6 14.5ZM 89 48.4L 114.5 10.7L 94.1 5.2L 69.3 41.9ZM 94.1 5.2L 96.5 42.2L 116.9 46.9L 114.5 10.7ZM 116.9 46.9L 135.9 13.7L 115.2 9.5L 96.5 42.2ZM 115.2 9.5L 119 40.8L 139.4 43L 135.9 13.7ZM 139.4 43L 150.7 10.5L 130.1 8.7L 119 40.8ZM 130.1 8.7L 135.7 43.5L 156.5 46.6L 150.7 10.5ZM 156.5 46.6L 172.7 13.6L 151.9 10.7L 135.7 43.5ZM 151.9 10.7L 157.5 41.8L 178.5 45.3L 172.7 13.6ZM 178.5 45.3L 197.1 12.4L 177.1 7.2L 157.5 41.8ZM 177.1 7.2L 177.2 34.2L 197.2 41.9L 197.1 12.4ZM 197.2 41.9L 222.4 13.8L 203.8 4.6L 177.2 34.2ZM 203.8 4.6L 199.7 26.1L 218.1 36.1L 222.4 13.8ZM 218.1 36.1L 243.6 11.7L 225.6 1.2L 199.7 26.1ZM 225.6 1.2L 221.2 18.3L 240.6 23.3L 243.6 11.7Z" fill-rule="nonzero"></path></g></g></g><g id="g-root-aim_znsiif17bzwng-fill" data-item-order="0" transform="translate(352, 40)"></g><g id="g-root-tx_predicti_1cxdlmf17c1b0i-fill" data-item-order="0" transform="translate(412, 40)"><g id="tx_predicti_1cxdlmf17c1b0i-fill" stroke="none" fill="#484848"><g><text style="font: 20px &quot;Shantell Sans&quot;, cursive; white-space: pre;" font-size="20px" font-family="'Shantell Sans', cursive"><tspan x="12" y="35.5" dominant-baseline="ideographic">Predictive Risk </tspan><tspan x="12" y="59.5" dominant-baseline="ideographic">Assessment</tspan></text></g></g></g><g id="g-root-elec_1q5pqk717bx2iv-fill" data-item-order="0" transform="translate(28, 88)"></g><g id="g-root-tx_reactive_4ik3av17c1afi-fill" data-item-order="0" transform="translate(88, 88)"><g id="tx_reactive_4ik3av17c1afi-fill" stroke="none" fill="#484848"><g><text style="font: 20px &quot;Shantell Sans&quot;, cursive; white-space: pre;" font-size="20px" font-family="'Shantell Sans', cursive"><tspan x="12" y="35.5" dominant-baseline="ideographic">Reactive Risk </tspan><tspan x="12" y="59.5" dominant-baseline="ideographic">Assessment</tspan></text></g></g></g><g id="g-root-moni_18lay0n17bygp6-fill" data-item-order="0" transform="translate(352, 112)"></g><g id="g-root-tx_intellig_1lse4s717c1clq-fill" data-item-order="0" transform="translate(412, 100)"><g id="tx_intellig_1lse4s717c1clq-fill" stroke="none" fill="#484848"><g><text style="font: 20px &quot;Shantell Sans&quot;, cursive; white-space: pre;" font-size="20px" font-family="'Shantell Sans', cursive"><tspan x="12" y="35.5" dominant-baseline="ideographic">Intelligent </tspan><tspan x="12" y="59.5" dominant-baseline="ideographic">Alert </tspan><tspan x="12" y="83.5" dominant-baseline="ideographic">Correlation</tspan></text></g></g></g><g id="g-root-stre_1q8u3zr17bvor3-fill" data-item-order="0" transform="translate(28, 160)"></g><g id="g-root-tx_cluttere_ddkmgn17c1csi-fill" data-item-order="0" transform="translate(88, 148)"><g id="tx_cluttere_ddkmgn17c1csi-fill" stroke="none" fill="#484848"><g><text style="font: 20px &quot;Shantell Sans&quot;, cursive; white-space: pre;" font-size="20px" font-family="'Shantell Sans', cursive"><tspan x="12" y="35.5" dominant-baseline="ideographic">Cluttered </tspan><tspan x="12" y="59.5" dominant-baseline="ideographic">Alerts </tspan><tspan x="12" y="83.5" dominant-baseline="ideographic">Management</tspan></text></g></g></g><g id="g-root-coff_dl2bhz17bx2bs-fill" data-item-order="0" transform="translate(352, 184)"></g><g id="g-root-tx_automate_1uo151317c1bsy-fill" data-item-order="0" transform="translate(412, 172)"><g id="tx_automate_1uo151317c1bsy-fill" stroke="none" fill="#484848"><g><text style="font: 20px &quot;Shantell Sans&quot;, cursive; white-space: pre;" font-size="20px" font-family="'Shantell Sans', cursive"><tspan x="12" y="35.5" dominant-baseline="ideographic">Automated </tspan><tspan x="12" y="59.5" dominant-baseline="ideographic">Evidence </tspan><tspan x="12" y="83.5" dominant-baseline="ideographic">Collection</tspan></text></g></g></g><g id="g-root-tx_manualdo_m97mpj17c1b7y-fill" data-item-order="0" transform="translate(88, 220)"><g id="tx_manualdo_m97mpj17c1b7y-fill" stroke="none" fill="#484848"><g><text style="font: 20px &quot;Shantell Sans&quot;, cursive; white-space: pre;" font-size="20px" font-family="'Shantell Sans', cursive"><tspan x="12" y="35.5" dominant-baseline="ideographic">Manual </tspan><tspan x="12" y="59.5" dominant-baseline="ideographic">Documentation </tspan><tspan x="12" y="83.5" dominant-baseline="ideographic">Effort</tspan></text></g></g></g><g id="g-root-outd_1d3mchj17bswe8-fill" data-item-order="0" transform="translate(28, 232)"></g><g id="g-root-tx_aipowere_v6q27r17c1a81-fill" data-item-order="0" transform="translate(346, 340)"><g id="tx_aipowere_v6q27r17c1a81-fill" stroke="none" fill="#484848"><g><text style="font: 20px &quot;Shantell Sans&quot;, cursive; white-space: pre;" font-size="20px" font-family="'Shantell Sans', cursive"><tspan x="16.9" y="35.5" dominant-baseline="ideographic">AI-Powered Security </tspan><tspan x="91.04" y="59.5" dominant-baseline="ideographic">Tools</tspan></text></g></g></g><g id="g-root-tx_traditio_zlx39317c1cli-fill" data-item-order="0" transform="translate(28, 388)"><g id="tx_traditio_zlx39317c1cli-fill" stroke="none" fill="#484848"><g><text style="font: 20px &quot;Shantell Sans&quot;, cursive; white-space: pre;" font-size="20px" font-family="'Shantell Sans', cursive"><tspan x="14.73" y="35.5" dominant-baseline="ideographic">Traditional Security </tspan><tspan x="84.21" y="59.5" dominant-baseline="ideographic">Tools</tspan></text></g></g></g><g id="g-root-tx_transiti_hv9juf17c1bt2-fill" data-item-order="0" transform="translate(70, 448)"><g id="tx_transiti_hv9juf17c1bt2-fill" stroke="none" fill="#484848"><g><text style="font: bold 25px &quot;Shantell Sans&quot;, cursive; white-space: pre;" font-weight="bold" font-size="25px" font-family="'Shantell Sans', cursive"><tspan x="12.67" y="41.5" dominant-baseline="ideographic">Transition from manual chaos to </tspan><tspan x="49.83" y="71.5" dominant-baseline="ideographic">automated clarity with AI.</tspan></text></g></g></g><g id="g-root-tf_1lu9k1j17c1cea-stroke" data-item-order="-316800" transform="translate(-8, -8)"></g><g id="g-root-4.cu_sy_1lz9cqf17bsuto-stroke" data-item-order="-105977" transform="translate(123.95700073242188, 280.75)"><g id="4.cu_sy_1lz9cqf17bsuto-stroke" fill="none" stroke-linecap="round" stroke-linejoin="round" stroke-miterlimit="4" stroke="#484848" stroke-width="2"><g><path d="M 340.042999 45.25C 343.242999 45.95 346.442999 42.55 346.042999 39.25C 345.642999 35.95 343.342999 33.35 340.042999 33.25C 336.742999 33.15 334.442999 35.95 334.042999 39.25C 333.642999 42.55 336.742999 44.95 340.042999 45.25M 16.042999 93.25C 19.342999 93.15 22.442999 90.55 22.042999 87.25C 21.642999 83.95 19.342999 81.35 16.042999 81.25C 12.742999 81.15 10.742999 84.05 10.042999 87.25C 9.342999 90.45 12.742999 92.85 16.042999 93.25M 340.042999 33.25C 339.142999 25.55 339.542999 17.75 340.042999 10.05M 16.042999 58.25C 17.542999 65.75 16.642999 73.65 16.042999 81.25M 194.042999 60.95C 209.542999 58.35 225.242999 57.35 240.542999 54.05C 254.642999 50.95 269.042999 49.35 283.342999 47.65C 300.342999 45.75 317.142999 41.95 334.242999 40.15M 160.542999 65.85C 137.242999 69.45 114.042999 73.65 90.642999 76.25C 67.642999 78.75 44.642999 81.45 22.042999 86.35"></path><path d="M 340.042999 45.25C 343.356999 45.25 346.042999 42.564 346.042999 39.25C 346.042999 35.936 343.356999 33.25 340.042999 33.25C 336.728999 33.25 334.042999 35.936 334.042999 39.25C 334.042999 42.564 336.728999 45.25 340.042999 45.25ZM 16.021999 93.25C 19.346999 93.25 22.042999 90.564 22.042999 87.25C 22.042999 83.936 19.346999 81.25 16.021999 81.25C 12.695999 81.25 9.999999 83.936 9.999999 87.25C 9.999999 90.564 12.695999 93.25 16.021999 93.25ZM 340.042999 33.25L 340.042999 10M 16.042999 58.25L 16.042999 81.25M 194.062999 60.907L 334.195999 40.141M 160.540999 65.869L 21.992999 86.395"></path></g></g></g><g id="g-root-3.Exclude_sy_1hjfulz17bsvlx-stroke" data-item-order="-105974" transform="translate(245.055908203125, 318)"><g id="3.Exclude_sy_1hjfulz17bsvlx-stroke" fill="none" stroke-linecap="round" stroke-linejoin="round" stroke-miterlimit="4" stroke="#484848" stroke-width="4"><g><path d="M 56.944107 10C 49.644107 8.6 43.744107 15.3 41.444107 22C 31.644107 56.3 18.844107 89.6 10.144107 124.1C 9.644107 126.1 10.944107 128 13.044107 128C 42.244107 128.4 71.644107 126.2 100.844107 128C 102.944107 128.1 104.344107 126 103.744107 124.1C 100.644107 113.8 97.944107 103.3 94.244107 93.2C 90.344107 82.2 85.844107 71.2 83.944107 59.7C 81.944107 46.7 77.744107 34 72.444107 22.1C 71.744107 15 64.444107 10.4 56.944107 10M 56.944107 33C 60.544107 34.4 62.844107 29.7 63.944107 26C 65.044107 22.3 60.844107 18.9 56.944107 19C 53.044107 19.1 49.344107 22.2 49.944107 26C 50.544107 29.8 53.144107 33.5 56.944107 33"></path><path d="M 56.944107 10C 49.471107 10 43.195107 15.122 41.436107 22.047L 10.134107 124.12C 9.542107 126.049 10.984107 128 13.002107 128L 100.886107 128C 102.903107 128 104.346107 126.049 103.754107 124.12L 72.454107 22.054C 70.696107 15.126 64.419107 10 56.944107 10ZM 56.944107 33C 60.810107 33 63.944107 29.866 63.944107 26C 63.944107 22.134 60.810107 19 56.944107 19C 53.078107 19 49.944107 22.134 49.944107 26C 49.944107 29.866 53.078107 33 56.944107 33Z"></path></g></g></g><g id="g-root-2.right-bucket_sy_1hjfulz17bsvly-stroke" data-item-order="-105970" transform="translate(340, 244)"><g id="2.right-bucket_sy_1hjfulz17bsvly-stroke" fill="none" stroke-linecap="round" stroke-linejoin="round" stroke-miterlimit="4" stroke="#484848" stroke-width="4"><g><path d="M 11.1 15.7C 10.2 15.1 10.1 13.8 10 12.7C 9.9 11.2 11.3 10.5 12.7 10C 27.7 4.9 44.4 10.3 60.2 10C 73.4 9.7 86.7 8.7 99.9 10C 115.8 11.5 131.8 9.9 147.8 10C 162.1 10 176.6 8.2 190.8 10C 205.5 11.9 220.5 10.8 235.3 10C 236.8 9.9 238 11.2 238 12.7C 238 13.8 237.7 15 236.9 15.7C 233.8 18.7 225 27 205.3 34.4C 187.9 40.9 161.8 45.1 124 46C 43.3 47.9 17.1 21 11.1 15.7"></path><path d="M 11.081 15.729C 10.338 14.904 10 13.826 10 12.716L 10 12.716C 10 11.216 11.216 10 12.716 10L 235.284 10C 236.784 10 238 11.216 238 12.716L 238 12.716C 238 13.826 237.662 14.904 236.919 15.729C 231.551 21.692 204.717 46 124 46C 43.283 46 16.449 21.692 11.081 15.729Z"></path></g></g></g><g id="g-root-1.left-bucket_sy_1hjfulz17bsvlz-stroke" data-item-order="-105966" transform="translate(16, 292)"><g id="1.left-bucket_sy_1hjfulz17bsvlz-stroke" fill="none" stroke-linecap="round" stroke-linejoin="round" stroke-miterlimit="4" stroke="#484848" stroke-width="4"><g><path d="M 11.1 15.7C 10.3 14.9 10.3 13.8 10 12.7C 9.7 11.3 11.3 9.5 12.7 10C 25.2 14.1 39 10.4 52.1 10C 65.3 9.6 78.6 10 91.9 10C 102.8 10 113.8 9.3 124.7 10C 136.4 10.8 148.1 9.6 159.9 10C 171.2 10.3 182.6 8.4 193.8 10C 207.5 12 221.6 8.3 235.3 10C 236.8 10.2 238.1 11.2 238 12.7C 237.9 13.8 237.9 15.2 236.9 15.7C 233.3 17.6 226 26.8 207.8 33.5C 190.2 39.9 163.6 46.3 124 46C 43.3 45.4 16 22 11.1 15.7"></path><path d="M 11.0812 15.729C 10.3384 14.904 10 13.826 10 12.716L 10 12.716C 10 11.216 11.2158 10 12.7157 10L 235.284 10C 236.784 10 238 11.216 238 12.716L 238 12.716C 238 13.826 237.662 14.904 236.919 15.729C 231.551 21.692 204.717 46 124 46C 43.2826 46 16.4488 21.692 11.0812 15.729Z"></path></g></g></g><g id="g-root-aim_znsiif17bzwng-stroke" data-item-order="0" transform="translate(352, 40)"><g id="aim_znsiif17bzwng-stroke" fill="none" stroke-linecap="round" stroke-linejoin="round" stroke-miterlimit="4" stroke="#484848" stroke-width="2"><g><path d="M 35 23C 35 28.6 39.400002 33.200001 45 33C 50.599998 32.799999 53.799999 28.4 55 23C 56.200001 17.6 50.400002 13.8 45 13C 39.599998 12.2 34.200001 17.6 35 23M 45 11C 45.599998 13 45.599998 15 45 17M 45 29C 45.200001 31 45.799999 33.200001 45 35M 33 23C 35 22.799999 37 23 39 23M 51 23C 53 22.6 55 22.6 57 23M 45 22.6C 45.200001 22.6 45.400002 22.799999 45.599998 23C 45.599998 23.200001 45.200001 23.4 45 23.6C 44.799999 23.6 44.599998 23.200001 44.599998 23C 44.400002 22.799999 44.799999 22.6 45 22.6M 21 32C 21.6 33.799999 20.6 36 21 38M 25 57C 25.4 53 24.4 48.799999 26 45C 27.6 45.200001 29.4 45.599998 31 45C 30.6 42.799999 31.4 40.200001 31 38C 29.799999 32.599998 26.4 28.799999 21 28C 15.6 27.200001 11.2 32.400002 11 38C 11 40.400002 11.8 42.799999 11 45C 12.6 45 14.4 45.400002 16 45C 16.799999 49 18 53.200001 17 57C 19.6 57.799999 22.4 56.200001 25 57M 15 14.4C 17.4 16.4 20.4 17 23.4 18C 24.799999 18.6 26.799999 18.200001 28 17M 14 18C 13.4 21.799999 17.200001 24.200001 21 25C 24.799999 25.799999 27.6 21.799999 28 18C 28.4 14.2 24.799999 11 21 11C 17.200001 11 14.6 14.2 14 18"></path><path d="M 35 23C 35 28.522848 39.477154 33 45 33C 50.522846 33 55 28.522848 55 23C 55 17.477154 50.522846 13 45 13C 39.477154 13 35 17.477154 35 23ZM 45 11L 45 17M 45 29L 45 35M 33 23L 39 23M 51 23L 57 23M 45 22.5C 45.276142 22.5 45.5 22.723858 45.5 23C 45.5 23.276142 45.276142 23.5 45 23.5C 44.723858 23.5 44.5 23.276142 44.5 23C 44.5 22.723858 44.723858 22.5 45 22.5M 21 32L 21 38M 25 57L 26 45L 31 45L 31 38C 31 32.477154 26.522848 28 21 28C 15.477153 28 11 32.477154 11 38L 11 45L 16 45L 17 57ZM 14.968 14.446C 17.158287 16.717663 20.1784 18.000652 23.334 18C 24.91567 18.000362 26.480831 17.678482 27.934 17.054001M 14 18C 14 21.865993 17.134007 25 21 25C 24.865993 25 28 21.865993 28 18C 28 14.134007 24.865993 11 21 11C 17.134007 11 14 14.134007 14 18Z"></path></g></g></g><g id="g-root-tx_predicti_1cxdlmf17c1b0i-stroke" data-item-order="0" transform="translate(412, 40)"></g><g id="g-root-elec_1q5pqk717bx2iv-stroke" data-item-order="0" transform="translate(28, 88)"><g id="elec_1q5pqk717bx2iv-stroke" fill="none" stroke-linecap="round" stroke-linejoin="round" stroke-miterlimit="4" stroke="#484848" stroke-width="2"><g><path d="M 22 32C 22 34.799999 24.200001 36.599998 27 37C 29.799999 37.400002 32.400002 34.799999 32 32C 31.6 29.200001 29.6 26.200001 27 27C 24.4 27.799999 21.6 29.200001 22 32M 35 57C 34 53.599998 35.200001 49.799999 34.200001 46.200001C 34.799999 46 35.599998 46 36.400002 46C 38.799999 46 40.799999 44.200001 42.200001 42.200001C 43.799999 40.200001 45 37.599998 43.799999 35.400002C 43 34 43 32.200001 42.799999 30.4C 42.599998 28.799999 41 27.799999 39.400002 28.200001C 37.799999 28.6 36.599998 30 37 31.6C 37.599998 33.200001 37.799999 34.799999 37.799999 36.599998C 38 37.400002 37.599998 38 37.400002 38.799999C 37.200001 39.599998 36.200001 39.799999 35.400002 40C 32.200001 41 28.6 41.599998 25.200001 41.599998C 22.200001 41.799999 19.799999 43.799999 17.200001 45.400002C 16 46.200001 14.6 47.400002 13.8 48.799999C 13 50.200001 12.6 52 13.8 53C 15 54.200001 17.200001 54.400002 18.200001 53C 19 51.599998 20.200001 50.400002 21.6 49.599998C 22.6 49 23.4 48 24.6 47.799999C 24.200001 50.799999 23.200001 54 24 57M 11 11C 21.4 10.4 31.6 11.6 42 11C 42.599998 11 43 11.4 43 12C 43 13.4 43.200001 14.6 43 16C 43 16.6 43.400002 17 44 17C 48.400002 17.200001 52.799999 15.8 57 17M 36 15C 34.799999 15.6 33.400002 15.6 32 15.8C 31.799999 15.8 31.6 16 31.6 16.200001C 31.6 16.4 31.799999 16.6 31.799999 16.6C 32.799999 18.200001 34.200001 19.4 36 20C 35.599998 21.6 34.400002 23.200001 34.400002 24.799999C 34.400002 25 34.400002 25.200001 34.599998 25.4C 34.599998 25.6 35 25.6 35 25.4C 36.799999 23.6 39.799999 23.4 42 22C 43.200001 22.799999 44.400002 23.799999 45.599998 24.6C 45.599998 24.799999 45.799999 24.799999 46 24.799999C 46 24.799999 46.200001 24.6 46.200001 24.6C 47.200001 24 47.599998 23 48 22"></path><path d="M 22 32C 22 34.761425 24.238577 37 27 37C 29.761423 37 32 34.761425 32 32C 32 29.238577 29.761423 27 27 27C 24.238577 27 22 29.238577 22 32ZM 34.938 57L 34.138 46.296001L 36.375999 45.936001C 38.764214 45.551552 40.897133 44.22192 42.293819 42.246918C 43.690506 40.271912 44.233368 37.817825 43.799999 35.438L 42.894001 30.462C 42.570923 28.859541 41.024368 27.810717 39.416077 28.10338C 37.807785 28.396046 36.729855 29.922453 36.992001 31.536001L 37.896 36.512001C 38.04007 37.304974 37.859016 38.122566 37.393631 38.780579C 36.928246 39.438591 36.217674 39.881672 35.422001 40.010002L 25.200001 41.66C 22.212044 41.959091 19.418831 43.280109 17.292 45.399998L 13.878 48.816002C 12.706968 49.98801 12.707588 51.887367 13.879386 53.058613C 15.051184 54.229858 16.950542 54.229584 18.122 53.057999L 21.534 49.646C 22.405813 48.779369 23.491093 48.158421 24.68 47.846001L 23.938 57M 11 11L 42 11C 42.552284 11 43 11.447716 43 12L 43 16C 43 16.552284 43.447716 17 44 17L 57 17M 36 15L 32.052002 15.8C 31.861809 15.838423 31.711021 15.983412 31.665173 16.171951C 31.619322 16.360489 31.686693 16.558531 31.837999 16.68L 36 20L 34.382 24.854C 34.321098 25.045145 34.380341 25.254183 34.532471 25.384954C 34.684601 25.515726 34.900166 25.54291 35.080002 25.454L 42 22L 45.577999 24.681999C 45.687653 24.765087 45.82679 24.79911 45.96241 24.776003C 46.09803 24.752895 46.218052 24.674711 46.293999 24.559999L 48 22"></path></g></g></g><g id="g-root-tx_reactive_4ik3av17c1afi-stroke" data-item-order="0" transform="translate(88, 88)"></g><g id="g-root-moni_18lay0n17bygp6-stroke" data-item-order="0" transform="translate(352, 112)"><g id="moni_18lay0n17bygp6-stroke" fill="none" stroke-linecap="round" stroke-linejoin="round" stroke-miterlimit="4" stroke="#484848" stroke-width="2"><g><path d="M 56.285713 44.285713C 56.285713 44.971428 56.628574 45.314285 56.285713 46C 55.942856 47.028572 55.600002 47.714287 54.57143 47.714287C 40.857143 47.714287 27.142857 45.657143 13.428572 47.714287C 12.4 47.714287 11.714286 47.028572 11.714286 46C 10.342857 37.085716 9.314285 27.485714 11.714286 18.571428C 12.057143 17.542858 12.4 16.857143 13.428572 16.857143C 16.171429 17.199999 19.257143 16.857143 22 16.857143M 30.571428 47.714287C 30.228573 50.799999 28.514286 53.542858 27.142857 56.285713M 37.428574 47.714287C 38.114285 50.799999 40.514286 53.200001 40.857143 56.285713M 23.714287 56.285713C 30.571428 57.657143 37.428574 55.942856 44.285713 56.285713M 30.571428 11.714286C 32.285713 13.085714 33.657143 14.457143 35.028572 16.171429M 30.571428 35.714287C 31.942858 34.342857 33.314285 32.628571 35.028572 31.257143M 34 23.714287C 32.285713 23.028572 30.571428 23.371429 28.857143 23.714287M 54.57143 11.714286C 53.200001 13.428572 51.828571 14.8 50.114285 16.171429M 54.57143 35.714287C 52.857143 34.685715 51.828571 32.285713 50.114285 31.257143M 34 20.285715C 34.342857 15.485714 38.114285 10.342857 42.57143 11.714286C 47.028572 13.085714 49.771431 15.828571 51.142857 20.285715C 51.828571 22.342857 51.485718 24.742859 51.142857 27.142857C 50.114285 31.942858 47.028572 37.085716 42.57143 35.714287C 38.114285 34.342857 35.371429 31.6 34 27.142857C 33.314285 25.085714 33.314285 22.685715 34 20.285715M 51.142857 23.714287C 52.857143 23.028572 54.57143 23.714287 56.285713 23.714287M 34 22C 39.485718 20.285715 45.314285 21.657143 51.142857 22"></path><path d="M 56.285713 44.285713L 56.285713 46C 56.285713 46.946774 55.518204 47.714287 54.57143 47.714287L 13.428572 47.714287C 12.481797 47.714287 11.714286 46.946774 11.714286 46L 11.714286 18.571428C 11.714286 17.624655 12.481797 16.857143 13.428572 16.857143L 22 16.857143M 30.571428 47.714287L 27.142857 56.285713M 37.428574 47.714287L 40.857143 56.285713M 23.714287 56.285713L 44.285713 56.285713M 30.571428 11.714286L 35.028572 16.171429M 30.571428 35.714287L 35.028572 31.257143M 34 23.714287L 28.857143 23.714287M 54.57143 11.714286L 50.114285 16.171429M 54.57143 35.714287L 50.114285 31.257143M 34 20.285715C 34 15.551846 37.837563 11.714286 42.57143 11.714286C 47.305298 11.714286 51.142857 15.551846 51.142857 20.285715L 51.142857 27.142857C 51.142857 31.876728 47.305298 35.714287 42.57143 35.714287C 37.837563 35.714287 34 31.876728 34 27.142857ZM 51.142857 23.714287L 56.285713 23.714287M 34 22L 51.142857 22"></path></g></g></g><g id="g-root-tx_intellig_1lse4s717c1clq-stroke" data-item-order="0" transform="translate(412, 100)"></g><g id="g-root-stre_1q8u3zr17bvor3-stroke" data-item-order="0" transform="translate(28, 160)"><g id="stre_1q8u3zr17bvor3-stroke" fill="none" stroke-linecap="round" stroke-linejoin="round" stroke-miterlimit="4" stroke="#484848" stroke-width="2"><g><path d="M 50 12C 49 13.6 47.400002 14.8 46 16C 46.799999 17 47.400002 18 48 19C 47 20.4 45.599998 21.4 44 22M 18 12C 19.6 13 21.200001 14.2 22 16C 21.200001 17 21 18.4 20 19C 21.6 19.799999 22.799999 20.799999 24 22M 34 11C 33.599998 12.2 32.799999 13.2 32 14C 32.400002 14.8 33.200001 15.4 34 16M 26.6 27.200001C 32 29.6 36.799999 32 42.400002 30.4M 25.6 31.6C 26.6 36 29.4 39.599998 34 40C 38.599998 40.400002 42.799999 36.200001 42.599998 31.6C 42.200001 26.799999 38.599998 23.799999 34 23C 29.4 22.200001 26.200001 26.799999 25.6 31.6M 20 57C 17.799999 49.599998 26.200001 42.599998 34 43C 41.799999 43.400002 47.599998 49.200001 48 57C 38.599998 57 29.200001 57.799999 20 57M 34 47C 34.400002 48.599998 34.200001 50.400002 34 52"></path><path d="M 50 12L 46 16L 48 19L 44 22M 18 12L 22 16L 20 19L 24 22M 34 11L 32 14L 34 16M 26.68 27.18C 30.741636 31.435724 37.030518 32.698296 42.420002 30.34M 25.5 31.5C 25.5 36.19442 29.30558 40 34 40C 38.69442 40 42.5 36.19442 42.5 31.5C 42.5 26.80558 38.69442 23 34 23C 29.30558 23 25.5 26.80558 25.5 31.5M 20 57C 20 49.268017 26.268015 43.000004 34 43.000004C 41.731987 43.000004 48 49.268017 48 57.000004ZM 34 47L 34 52"></path></g></g></g><g id="g-root-tx_cluttere_ddkmgn17c1csi-stroke" data-item-order="0" transform="translate(88, 148)"></g><g id="g-root-coff_dl2bhz17bx2bs-stroke" data-item-order="0" transform="translate(352, 184)"><g id="coff_dl2bhz17bx2bs-stroke" fill="none" stroke-linecap="round" stroke-linejoin="round" stroke-miterlimit="4" stroke="#484848" stroke-width="2"><g><path d="M 44 56C 41.799999 56 39.200001 54 40 52C 41 49.599998 39.200001 46.599998 40 44C 44.200001 44.799999 48.799999 43.400002 53 44C 54 46.400002 53 49.400002 53 52C 53 54.200001 51.200001 55.599998 49 56C 47.400002 56.200001 45.599998 56.200001 44 56M 44.599998 36C 43.799999 38.200001 46.400002 38.799999 44.599998 40M 49.599998 33C 47.200001 36.200001 52.599998 37.400002 49.599998 40M 35 48C 31.799999 48.599998 28.200001 47.400002 25 48C 27.200001 46.200001 26.799999 42.599998 28 40C 29.4 39.799999 30.6 40 32 40C 33.400002 42.599998 34.200001 45.200001 35 48M 22 48C 26.6 48.200001 31.4 49.200001 36 48M 38 40C 29.799999 42 21.200001 38.599998 13 40C 12 40.200001 11 39 11 38C 9.8 30 13 21.799999 11 14C 10.8 13 12 12 13 12C 24.200001 10 35.799999 13.8 47 12C 48 11.8 48.799999 13 49 14C 48.200001 19 49.799999 24 49 29M 18 32C 25.200001 33.799999 32.799999 33.400002 40 32M 21 19C 21.6 18.799999 22.4 19 23 19C 23.6 19 24 19.4 24 20C 24.200001 24 25.200001 28.200001 24 32C 22.6 31.799999 21.200001 32.400002 20 32C 21.6 28.200001 21.200001 23.799999 20 20C 19.799999 19.4 20.4 19 21 19M 37 26C 37.599998 25.799999 38.400002 26 39 26C 39.599998 26 40 26.4 40 27C 40 28.6 40.400002 30.4 40 32C 38.599998 32.200001 37.400002 32.200001 36 32C 36.200001 30.4 35.799999 28.6 36 27C 36 26.4 36.400002 25.799999 37 26M 29 22C 29.6 22.200001 30.4 22.200001 31 22C 31.6 21.799999 32 22.4 32 23C 31.799999 26 31.200001 29.200001 32 32C 30.6 32 29.4 32.200001 28 32C 28.6 29 27.200001 25.799999 28 23C 28.200001 22.4 28.4 22 29 22M 53 47C 53.400002 47 53.599998 47 54 47C 55.599998 46.599998 56.400002 48.400002 57 50C 57.599998 51.599998 55.599998 52.799999 54 53C 53.599998 53 53.200001 53 52.799999 53"></path><path d="M 44 56C 41.790863 56 40 54.209141 40 52L 40 44L 53 44L 53 52C 53 54.209141 51.209141 56 49 56ZM 44.580002 36C 43.099998 37.720001 46.02 38.32 44.580002 40M 49.540001 33C 47 36 52.060001 37 49.540001 39.959999M 35 48L 25 48C 26.564575 45.580559 27.587925 42.851631 28 40L 32 40C 32.417549 42.850224 33.440472 45.578018 35 48ZM 22 48L 36 48M 38 40L 13 40C 11.953758 39.870476 11.129521 39.046242 11 38L 11 14C 11.129521 12.953758 11.953758 12.129521 13 12L 47 12C 48.046238 12.129521 48.870476 12.953758 48.999996 14L 49 29M 18 32L 40 32M 21 19L 23 19C 23.552284 19 24 19.447716 24 20L 24 32L 24 32L 20 32L 20 32L 20 20C 20 19.447716 20.447716 19 21 19ZM 37 26L 39 26C 39.552284 26 40 26.447716 40 27L 40 32L 40 32L 36 32L 36 32L 36 27C 36 26.447716 36.447716 26 37 26ZM 29 22L 31 22C 31.552284 22 32 22.447716 32 23L 32 32L 32 32L 28 32L 28 32L 28 23C 28 22.447716 28.447716 22 29 22ZM 53 47L 54 47C 55.656857 47 57 48.343147 57 50C 57 51.656857 55.656857 53 54 53L 52.880001 53"></path></g></g></g><g id="g-root-tx_automate_1uo151317c1bsy-stroke" data-item-order="0" transform="translate(412, 172)"></g><g id="g-root-tx_manualdo_m97mpj17c1b7y-stroke" data-item-order="0" transform="translate(88, 220)"></g><g id="g-root-outd_1d3mchj17bswe8-stroke" data-item-order="0" transform="translate(28, 232)"><g id="outd_1d3mchj17bswe8-stroke" fill="none" stroke-linecap="round" stroke-linejoin="round" stroke-miterlimit="4" stroke="#484848" stroke-width="2"><g><path d="M 34 27.142857C 35.028572 30.914286 37.428574 32.628571 40.857143 34C 44.285713 35.371429 47.714287 30.914286 47.714287 27.142857C 47.714287 23.371429 44.628574 21.314285 40.857143 20.285715C 37.085716 19.257143 34.685715 23.371429 34 27.142857M 40.857143 40.857143C 44.971428 41.200001 48.057144 43.257141 51.828571 45.314285C 55.257141 47.371429 56.971428 52.171429 56.285713 56.285713M 32.285713 39.142857C 25.428572 38.114285 18.571428 39.142857 11.714286 39.142857C 11.714286 44.971428 12.4 51.142857 15.142858 56.285713C 22 57.314285 29.200001 54.57143 35.714287 56.285713C 32.971428 51.142857 32.285713 44.971428 32.285713 39.142857M 22 47.714287C 23.028572 48.057144 24.4 48.057144 25.428572 47.714287M 35.714287 56.285713C 39.142857 56.971428 42.57143 55.942856 46 56.285713M 28.857143 11.714286C 29.885715 12.057143 31.257143 11.371428 32.285713 11.714286M 23.714287 23.714287C 24.742859 24.4 25.428572 25.428572 26.114285 26.114285M 11.714286 28.857143C 11.371428 29.885715 12.057143 31.257143 11.714286 32.285713M 22 11.714286C 20.628571 17.199999 17.542858 22 11.714286 22"></path><path d="M 34 27.142857C 34 30.929953 37.070049 34 40.857143 34C 44.644238 34 47.714287 30.929953 47.714287 27.142857C 47.714287 23.355762 44.644238 20.285715 40.857143 20.285715C 37.070049 20.285715 34 23.355762 34 27.142857M 40.857143 40.857143C 44.951847 40.848011 48.88147 42.470589 51.776871 45.365986C 54.672268 48.261387 56.294846 52.19101 56.285713 56.285713M 32.285713 39.142857L 11.714286 39.142857L 15.142858 56.285713L 35.714287 56.285713L 32.285713 39.142857ZM 22 47.714287L 25.428572 47.714287M 35.714287 56.285713L 46 56.285713M 28.857143 11.714286L 32.285713 11.714286M 23.851429 23.851429L 26.251429 26.251429M 11.714286 28.857143L 11.714286 32.285713M 22 11.714286C 22 17.39493 17.39493 22 11.714286 22"></path></g></g></g><g id="g-root-tx_aipowere_v6q27r17c1a81-stroke" data-item-order="0" transform="translate(346, 340)"></g><g id="g-root-tx_traditio_zlx39317c1cli-stroke" data-item-order="0" transform="translate(28, 388)"></g><g id="g-root-tx_transiti_hv9juf17c1bt2-stroke" data-item-order="0" transform="translate(70, 448)"></g></g></g></svg>